# xmcd CD database file
#
# Track frame offsets:
#	150
#	20321
#	39903
#	58251
#	76340
#	90641
#	108081
#	121048
#	144132
#	158164
#
# Disc length: 2375 seconds
#
# Revision: 0
# Processed by: cddbd v1.5.2PL0 Copyright (c) Steve Scherf et al.
# Submitted via: CDex 1.51
#
DISCID=6a09450a
DTITLE=Olivier Joos Quintet - Boptu Concept
DYEAR=2005
DGENRE=Jazz
TTITLE0=A.S.P.
TTITLE1=Waltz For D'Joe
TTITLE2=Selig
TTITLE3=Mr Boptu
TTITLE4=Mac Kaloo
TTITLE5=Virginie
TTITLE6=P.P Postman
TTITLE7=Steph
TTITLE8=Ricotone Blues
TTITLE9=Pato
EXTD=YEAR: 2005
EXTT0=
EXTT1=
EXTT2=
EXTT3=
EXTT4=
EXTT5=
EXTT6=
EXTT7=
EXTT8=
EXTT9=
PLAYORDER=
